<svg id="l_d_203" xmlns="http://www.w3.org/2000/svg" xmlns:xlink="http://www.w3.org/1999/xlink" viewBox="0 0 45 45" width="45" height="45" preserveAspectRatio="xMidYMid meet" style="width: 100%; height: 100%; transform: translate3d(0px, 0px, 0px); content-visibility: visible;"><defs id="l_d_204"><clipPath id="__lottie_element_77"><rect id="l_d_207" width="45" height="45" x="0" y="0"></rect></clipPath><clipPath id="__lottie_element_79"><path id="l_d_210" fill="#ffffff" clip-rule="nonzero"></path><path id="l_d_211" fill="#ffffff" clip-rule="nonzero"></path></clipPath><clipPath id="__lottie_element_82"><path id="l_d_218" fill="#ffffff" clip-rule="nonzero"></path><path id="l_d_219" fill="#ffffff" clip-rule="nonzero"></path></clipPath><clipPath id="__lottie_element_85"><path id="l_d_226" fill="#ffffff" clip-rule="nonzero"></path><path id="l_d_227" fill="#ffffff" clip-rule="nonzero"></path></clipPath><clipPath id="__lottie_element_88"><path id="l_d_234" fill="#ffffff" clip-rule="nonzero"></path><path id="l_d_235" fill="#ffffff" clip-rule="nonzero"></path></clipPath><clipPath id="__lottie_element_91"><path id="l_d_242" fill="#ffffff" clip-rule="nonzero"></path><path id="l_d_243" fill="#ffffff" clip-rule="nonzero"></path></clipPath><clipPath id="__lottie_element_94"><path id="l_d_250" fill="#ffffff" clip-rule="nonzero"></path><path id="l_d_251" fill="#ffffff" clip-rule="nonzero"></path></clipPath><clipPath id="__lottie_element_97"><path id="l_d_258" fill="#ffffff" clip-rule="nonzero"></path><path id="l_d_259" fill="#ffffff" clip-rule="nonzero"></path></clipPath></defs><g id="l_d_205" clip-path="url(#__lottie_element_77)"><g id="l_d_282" transform="matrix(1.0000008344650269,0,0,1.0000008344650269,-24.00003433227539,-18.374406814575195)" opacity="1" style="display: block;"><g id="l_d_286" opacity="1" transform="matrix(1,0,0,1,51,50)"><path id="l_d_287" stroke-linecap="butt" stroke-linejoin="miter" fill-opacity="0" stroke-miterlimit="4" stroke="rgb(34,34,34)" stroke-opacity="1" stroke-width="2" d=" M-2,-2 C-2,-2 2,-2 2,-2 C2,-2 2,1 2,1 C2,1.5520000457763672 1.5520000457763672,2 1,2 C1,2 -1,2 -1,2 C-1.5520000457763672,2 -2,1.5520000457763672 -2,1 C-2,1 -2,-2 -2,-2 C-2,-2 -2,-2 -2,-2z"></path></g><g id="l_d_288" opacity="1" transform="matrix(1,0,0,1,29,50)"><path id="l_d_289" stroke-linecap="butt" stroke-linejoin="miter" fill-opacity="0" stroke-miterlimit="4" stroke="rgb(34,34,34)" stroke-opacity="1" stroke-width="2" d=" M-2,-2 C-2,-2 2,-2 2,-2 C2,-2 2,1 2,1 C2,1.5520000457763672 1.5520000457763672,2 1,2 C1,2 -1,2 -1,2 C-1.5520000457763672,2 -2,1.5520000457763672 -2,1 C-2,1 -2,-2 -2,-2 C-2,-2 -2,-2 -2,-2z"></path></g></g><g id="l_d_264" transform="matrix(1.0000008344650269,0,0,1.0000008344650269,-24.00003433227539,-18.374406814575195)" opacity="1" style="display: block;"><g id="l_d_268" opacity="1" transform="matrix(1,0,0,1,40,43)"><path id="l_d_269" stroke-linecap="butt" stroke-linejoin="miter" fill-opacity="0" stroke-miterlimit="4" stroke="rgb(34,34,34)" stroke-opacity="1" stroke-width="2" d=" M-9,-5 C-9,-5 9,-5 9,-5 C11.208999633789062,-5 13,-3.2090001106262207 13,-1 C13,-1 13,4 13,4 C13,4.552000045776367 12.552000045776367,5 12,5 C12,5 -12,5 -12,5 C-12.552000045776367,5 -13,4.552000045776367 -13,4 C-13,4 -13,-1 -13,-1 C-13,-3.2090001106262207 -11.208999633789062,-5 -9,-5z"></path></g><g id="l_d_270" opacity="1" transform="matrix(1,0,0,1,49,43)"><path id="l_d_271" fill="rgb(34,34,34)" fill-opacity="1" d=" M0,-1 C0.5519999861717224,-1 1,-0.5519999861717224 1,0 C1,0.5519999861717224 0.5519999861717224,1 0,1 C-0.5519999861717224,1 -1,0.5519999861717224 -1,0 C-1,-0.5519999861717224 -0.5519999861717224,-1 0,-1z"></path></g><g id="l_d_272" opacity="1" transform="matrix(1,0,0,1,31,43)"><path id="l_d_273" fill="rgb(34,34,34)" fill-opacity="1" d=" M0,-1 C0.5519999861717224,-1 1,-0.5519999861717224 1,0 C1,0.5519999861717224 0.5519999861717224,1 0,1 C-0.5519999861717224,1 -1,0.5519999861717224 -1,0 C-1,-0.5519999861717224 -0.5519999861717224,-1 0,-1z"></path></g><g id="l_d_274" opacity="1" transform="matrix(1,0,0,1,40,34)"><path id="l_d_275" stroke-linecap="butt" stroke-linejoin="miter" fill-opacity="0" stroke-miterlimit="4" stroke="rgb(34,34,34)" stroke-opacity="1" stroke-width="2" d=" M-7.307000160217285,-4 C-7.307000160217285,-4 7.307000160217285,-4 7.307000160217285,-4 C7.723999977111816,-4 8.097000122070312,-3.740999937057495 8.243000030517578,-3.3510000705718994 C8.243000030517578,-3.3510000705718994 11,4 11,4 C11,4 11,4 11,4 C11,4 -11,4 -11,4 C-11,4 -8.243000030517578,-3.3510000705718994 -8.243000030517578,-3.3510000705718994 C-8.097000122070312,-3.740999937057495 -7.723999977111816,-4 -7.307000160217285,-4z"></path></g><g id="l_d_276" opacity="1" transform="matrix(1,0,0,1,27.5,36)"><path id="l_d_277" fill="rgb(34,34,34)" fill-opacity="1" d=" M-1.5,-1 C-1.5,-1 1.5,-1 1.5,-1 C1.5,-1 1.5,1 1.5,1 C1.5,1 -1.5,1 -1.5,1 C-1.5,1 -1.5,-1 -1.5,-1z"></path></g><g id="l_d_278" opacity="1" transform="matrix(1,0,0,1,52.5,36)"><path id="l_d_279" fill="rgb(34,34,34)" fill-opacity="1" d=" M-1.5,-1 C-1.5,-1 1.5,-1 1.5,-1 C1.5,-1 1.5,1 1.5,1 C1.5,1 -1.5,1 -1.5,1 C-1.5,1 -1.5,-1 -1.5,-1z"></path></g><g id="l_d_280" opacity="1" transform="matrix(1,0,0,1,40,43)"><path id="l_d_281" stroke-linecap="butt" stroke-linejoin="miter" fill-opacity="0" stroke-miterlimit="4" stroke="rgb(34,34,34)" stroke-opacity="1" stroke-width="2" d=" M-6,0 C-6,0 6,0 6,0"></path></g></g><g id="l_d_256" clip-path="url(#__lottie_element_97)" style="display: none;"><g id="l_d_262"><path id="l_d_263"></path></g></g><g id="l_d_248" clip-path="url(#__lottie_element_94)" style="display: none;"><g id="l_d_254"><path id="l_d_255"></path></g></g><g id="l_d_240" clip-path="url(#__lottie_element_91)" style="display: none;"><g id="l_d_246"><path id="l_d_247"></path></g></g><g id="l_d_232" clip-path="url(#__lottie_element_88)" style="display: none;"><g id="l_d_238"><path id="l_d_239"></path></g></g><g id="l_d_224" clip-path="url(#__lottie_element_85)" style="display: none;"><g id="l_d_230"><path id="l_d_231"></path></g></g><g id="l_d_216" clip-path="url(#__lottie_element_82)" style="display: none;"><g id="l_d_222"><path id="l_d_223"></path></g></g><g id="l_d_208" clip-path="url(#__lottie_element_79)" style="display: none;"><g id="l_d_214"><path id="l_d_215"></path></g></g></g></svg>